<?xml version="1.0" encoding="utf-8"?>
<!-- Generator: Adobe Illustrator 25.4.1, SVG Export Plug-In . SVG Version: 6.00 Build 0)  -->
<svg version="1.1" xmlns="http://www.w3.org/2000/svg" xmlns:xlink="http://www.w3.org/1999/xlink" x="0px" y="0px"
	 viewBox="0 0 391 232.1" style="enable-background:new 0 0 391 232.1;" xml:space="preserve">
<style type="text/css">
	.st0{fill:#FFC836;}
	.st1{display:none;}
	.st2{display:inline;fill:none;}
</style>
<g id="logo">
	<g>
		<path d="M72.3,156.3h21l6.5,14.1h4.5l-21.5-46.6l-21.5,46.6h4.5L72.3,156.3z M82.8,133.6l8.7,18.9H74L82.8,133.6z"/>
		<polygon points="199.8,123.9 199.8,128.1 199.8,144.5 199.8,148.3 199.8,166.2 199.8,170.3 230.9,170.3 230.9,166.2 203.9,166.2 
			203.9,148.3 224.8,148.3 224.8,144.5 203.9,144.5 203.9,128.1 230.9,128.1 230.9,123.9 199.8,123.9 		"/>
		<polygon points="155.8,128.1 170.7,128.1 170.7,170.3 174.9,170.3 174.9,128.1 189.8,128.1 189.8,123.9 155.8,123.9 		"/>
		<polygon points="325.6,144.5 298.8,144.5 298.8,123.9 294.7,123.9 294.7,170.3 298.8,170.3 298.8,148.3 325.6,148.3 325.6,170.3 
			329.7,170.3 329.7,148.3 329.7,144.5 329.7,123.9 325.6,123.9 		"/>
		<path d="M262.3,167.3c-11.1,0-20.2-9.1-20.2-20.2c0-11.1,9.1-20.2,20.2-20.2c6,0,11.6,2.6,15.5,7.2l3.1-2.6
			c-4.6-5.5-11.4-8.7-18.6-8.7c-13.4,0-24.3,10.9-24.3,24.3c0,13.4,10.9,24.3,24.3,24.3c7.6,0,14.8-3.6,19.4-9.7l-3.3-2.5
			C274.6,164.3,268.6,167.3,262.3,167.3"/>
		<path d="M128.2,123.9h-6.1h-7.2v0.6v45.8h7.2h6.1c12.8,0,23.2-10.4,23.2-23.2C151.4,134.3,141,123.9,128.2,123.9 M128.2,166.2
			h-6.1H119V128h3.1h6.1c10.5,0,19.1,8.6,19.1,19.1C147.3,157.6,138.7,166.2,128.2,166.2"/>
	</g>
	<g>
		<polygon class="st0" points="137,61.8 118.5,93.5 100,61.8 90.4,61.8 118.5,109.9 146.6,61.8 		"/>
		<path class="st0" d="M234,105.9c7.3-4.2,12.3-12.1,12.3-21.2c0-13.4-10.8-24.3-24.1-24.3c-13.3,0-24.1,10.9-24.1,24.3
			c0,9.1,5,17,12.3,21.2c3.5,2,7.5,3.1,11.7,3.1C226.6,109,230.6,107.8,234,105.9 M222.3,68.1c8.8,0,16,7.7,16,16.6
			c0,8.9-7.2,16.6-16,16.6c-8.8,0-16-7.7-16-16.6C206.3,75.8,213.5,68.1,222.3,68.1"/>
		<polygon class="st0" points="292.3,61.8 292.3,92.1 259.7,61.8 255.7,61.8 255.7,107.6 264,107.6 264,77.2 296.7,107.6 
			300.5,107.6 300.5,61.8 		"/>
		<polygon class="st0" points="164,99.8 164,87.9 183.4,87.9 183.4,80.4 164,80.4 164,69.7 189.2,69.7 189.2,61.8 189.2,61.8 
			189.2,61.8 155.8,61.8 155.8,107.1 155.8,107.6 189.3,107.6 189.3,107.1 189.3,99.8 		"/>
	</g>
</g>
<g id="safe_zone" class="st1">
	<path class="st2" d="M45.6,228.2c9.3-5.3,15.7-15.4,15.7-27c0-17-13.7-30.9-30.6-30.9C13.7,170.3,0,184.2,0,201.2
		c0,11.6,6.3,21.7,15.7,27c4.4,2.5,9.5,3.9,15,3.9C36.1,232.1,41.2,230.7,45.6,228.2 M30.6,180.1c11.2,0,20.4,9.8,20.4,21.1
		c0,11.3-9.1,21.1-20.4,21.1c-11.2,0-20.4-9.8-20.4-21.1C10.3,189.9,19.4,180.1,30.6,180.1"/>
	<path class="st2" d="M375.3,57.9c9.3-5.3,15.7-15.4,15.7-27c0-17-13.7-30.9-30.6-30.9c-16.9,0-30.6,13.9-30.6,30.9
		c0,11.6,6.3,21.7,15.7,27c4.4,2.5,9.5,3.9,15,3.9C365.8,61.8,370.9,60.4,375.3,57.9 M360.4,9.8c11.2,0,20.4,9.8,20.4,21.1
		c0,11.3-9.1,21.1-20.4,21.1c-11.2,0-20.4-9.8-20.4-21.1C340,19.6,349.1,9.8,360.4,9.8"/>
	<path class="st2" d="M45.6,57.9c9.3-5.3,15.7-15.4,15.7-27C61.3,13.9,47.5,0,30.6,0C13.7,0,0,13.9,0,30.9c0,11.6,6.3,21.7,15.7,27
		c4.4,2.5,9.5,3.9,15,3.9C36.1,61.8,41.2,60.4,45.6,57.9 M30.6,9.8C41.9,9.8,51,19.6,51,30.9C51,42.3,41.9,52,30.6,52
		c-11.2,0-20.4-9.8-20.4-21.1C10.3,19.6,19.4,9.8,30.6,9.8"/>
	<path class="st2" d="M375.3,228.2c9.3-5.3,15.7-15.4,15.7-27c0-17-13.7-30.9-30.6-30.9c-16.9,0-30.6,13.9-30.6,30.9
		c0,11.6,6.3,21.7,15.7,27c4.4,2.5,9.5,3.9,15,3.9C365.8,232.1,370.9,230.7,375.3,228.2 M360.4,180.1c11.2,0,20.4,9.8,20.4,21.1
		c0,11.3-9.1,21.1-20.4,21.1c-11.2,0-20.4-9.8-20.4-21.1C340,189.9,349.1,180.1,360.4,180.1"/>
</g>
</svg>
